<svg width="17" height="21" viewBox="0 0 17 21" fill="none" xmlns="http://www.w3.org/2000/svg">
<path d="M8.16667 9.33333C9.08965 9.33333 9.9919 9.05964 10.7593 8.54686C11.5268 8.03408 12.1249 7.30525 12.4781 6.45253C12.8313 5.5998 12.9237 4.66149 12.7437 3.75625C12.5636 2.851 12.1191 2.01948 11.4665 1.36684C10.8139 0.714192 9.98233 0.269735 9.07709 0.0896708C8.17184 -0.0903936 7.23353 0.00202198 6.38081 0.355231C5.52809 0.70844 4.79926 1.30658 4.28648 2.07401C3.7737 2.84144 3.5 3.74369 3.5 4.66667C3.5 5.90435 3.99167 7.09133 4.86683 7.9665C5.742 8.84167 6.92899 9.33333 8.16667 9.33333Z" fill="white"/>
<path d="M15.1667 21C15.4761 21 15.7728 20.8771 15.9916 20.6583C16.2104 20.4395 16.3333 20.1428 16.3333 19.8333C16.3333 17.6674 15.4729 15.5902 13.9414 14.0586C12.4098 12.5271 10.3326 11.6667 8.16667 11.6667C6.00073 11.6667 3.92351 12.5271 2.39196 14.0586C0.860414 15.5902 3.22749e-08 17.6674 0 19.8333C0 20.1428 0.122917 20.4395 0.341709 20.6583C0.560501 20.8771 0.857247 21 1.16667 21H15.1667Z" fill="white"/>
</svg>
